<svg width="26" height="21" viewBox="0 0 26 21" fill="none" xmlns="http://www.w3.org/2000/svg">
<path d="M25.896 15.48C25.896 16.952 25.416 18.136 24.456 19.032C23.496 19.864 22.28 20.28 20.808 20.28C19.08 20.28 17.64 19.704 16.488 18.552C15.4 17.4 14.856 15.704 14.856 13.464C14.856 11.352 15.144 9.56 15.72 8.088C16.36 6.552 17.096 5.272 17.928 4.248C18.824 3.16 19.72 2.296 20.616 1.65599C21.576 1.016 22.408 0.567995 23.112 0.311995L25.512 3.672C24.104 4.376 22.952 5.33599 22.056 6.55199C21.224 7.70399 20.808 9.17599 20.808 10.968C21.064 10.904 21.416 10.872 21.864 10.872C23.144 10.872 24.136 11.32 24.84 12.216C25.544 13.112 25.896 14.2 25.896 15.48ZM11.88 15.48C11.88 16.952 11.4 18.136 10.44 19.032C9.48 19.864 8.264 20.28 6.792 20.28C5.064 20.28 3.624 19.704 2.472 18.552C1.384 17.4 0.84 15.704 0.84 13.464C0.84 11.352 1.128 9.56 1.704 8.088C2.344 6.552 3.08 5.272 3.912 4.248C4.808 3.16 5.704 2.296 6.6 1.65599C7.56 1.016 8.392 0.567995 9.096 0.311995L11.496 3.672C10.088 4.376 8.936 5.33599 8.04 6.55199C7.208 7.70399 6.792 9.17599 6.792 10.968C7.048 10.904 7.4 10.872 7.848 10.872C9.128 10.872 10.12 11.32 10.824 12.216C11.528 13.112 11.88 14.2 11.88 15.48Z" fill="black"/>
</svg>
