<svg width="26" height="21" viewBox="0 0 26 21" fill="none" xmlns="http://www.w3.org/2000/svg">
<path d="M0.103997 5.52C0.103997 4.048 0.583998 2.864 1.544 1.968C2.504 1.136 3.72 0.720005 5.192 0.720005C6.92 0.720005 8.36 1.296 9.512 2.448C10.6 3.6 11.144 5.296 11.144 7.536C11.144 9.648 10.856 11.44 10.28 12.912C9.64 14.448 8.904 15.728 8.072 16.752C7.176 17.84 6.28 18.704 5.384 19.344C4.424 19.984 3.592 20.432 2.888 20.688L0.487998 17.328C1.896 16.624 3.048 15.664 3.944 14.448C4.776 13.296 5.192 11.824 5.192 10.032C4.936 10.096 4.584 10.128 4.136 10.128C2.856 10.128 1.864 9.68 1.16 8.784C0.455997 7.888 0.103997 6.8 0.103997 5.52ZM14.12 5.52C14.12 4.048 14.6 2.864 15.56 1.968C16.52 1.136 17.736 0.720005 19.208 0.720005C20.936 0.720005 22.376 1.296 23.528 2.448C24.616 3.6 25.16 5.296 25.16 7.536C25.16 9.648 24.872 11.44 24.296 12.912C23.656 14.448 22.92 15.728 22.088 16.752C21.192 17.84 20.296 18.704 19.4 19.344C18.44 19.984 17.608 20.432 16.904 20.688L14.504 17.328C15.912 16.624 17.064 15.664 17.96 14.448C18.792 13.296 19.208 11.824 19.208 10.032C18.952 10.096 18.6 10.128 18.152 10.128C16.872 10.128 15.88 9.68 15.176 8.784C14.472 7.888 14.12 6.8 14.12 5.52Z" fill="black"/>
</svg>
